<svg width="177" height="159" viewBox="0 0 177 159" fill="none" xmlns="http://www.w3.org/2000/svg">
<ellipse cx="89.5" cy="128.5" rx="27.5" ry="30.5" fill="#6A1A6B"/>
<ellipse cx="88.5" cy="97.2814" rx="27.4655" ry="30.4479" fill="#20C0D6"/>
<ellipse cx="48.8276" cy="54.4896" rx="48.8276" ry="53.4896" fill="#361778"/>
<path d="M21.4976 42.601C22.878 41.7921 24.2429 41.5578 25.5923 41.8983C26.9335 42.225 28.0652 43.1752 28.9874 44.7489L32.9068 51.4371L31.0433 52.5292L27.2816 46.1102C26.6183 44.9783 25.8297 44.2813 24.9158 44.0194C23.9939 43.7437 23.0429 43.893 22.0628 44.4674C21.0689 45.0498 20.4572 45.8256 20.2276 46.7946C20.0119 47.7556 20.2518 48.8296 20.9475 50.0168L24.6243 56.2909L22.74 57.3951L16.0903 46.048L17.9746 44.9437L18.9211 46.5588C18.9541 45.7606 19.195 45.0167 19.6439 44.3271C20.1067 43.6294 20.7246 43.054 21.4976 42.601ZM42.7584 37.4578C42.9687 37.8167 43.1705 38.2084 43.3637 38.633L34.2942 43.9479C35.0185 45.0256 35.9118 45.6797 36.9742 45.9102C38.0422 46.1188 39.0732 45.9319 40.0671 45.3495C40.8816 44.8722 41.4488 44.2894 41.7687 43.6012C42.0944 42.8911 42.1816 42.1539 42.0303 41.3894L44.0596 40.2003C44.3949 41.4688 44.3093 42.7151 43.8027 43.9392C43.288 45.1495 42.3543 46.1511 41.0015 46.9439C39.9247 47.5749 38.8169 47.8995 37.6779 47.918C36.5527 47.9283 35.4896 47.6333 34.4887 47.0329C33.4798 46.4188 32.6315 45.525 31.9438 44.3517C31.2562 43.1783 30.8882 42.0123 30.8398 40.8538C30.7915 39.6953 31.0508 38.6346 31.6178 37.6718C32.1905 36.6871 33.0291 35.8712 34.1334 35.224C35.2101 34.593 36.3002 34.2695 37.4035 34.2535C38.5068 34.2375 39.522 34.5141 40.4491 35.0835C41.3819 35.631 42.1517 36.4224 42.7584 37.4578ZM40.5814 38.205C40.1608 37.4872 39.642 36.9659 39.0252 36.6412C38.4003 36.3027 37.7349 36.1641 37.0291 36.2254C36.3289 36.2648 35.6475 36.4787 34.9849 36.867C34.0324 37.4251 33.3959 38.2061 33.0755 39.2099C32.7688 40.2056 32.8827 41.2701 33.417 42.4035L40.5814 38.205ZM52.2389 24.8642L58.8886 36.2113L57.0043 37.3155L56.0214 35.6383C56.0023 36.4284 55.7654 37.1792 55.3107 37.8908C54.8618 38.5804 54.2508 39.1517 53.4777 39.6047C52.5943 40.1224 51.6953 40.4081 50.781 40.4618C49.8586 40.5016 48.9759 40.2771 48.133 39.7882C47.304 39.2911 46.582 38.5181 45.9672 37.4689L42.0721 30.8222L43.9356 29.7301L47.6852 36.1284C48.3404 37.2465 49.129 37.9434 50.0509 38.2192C50.9648 38.4811 51.9117 38.3248 52.8918 37.7505C53.8995 37.1599 54.5113 36.3842 54.727 35.4232C54.9428 34.4623 54.7028 33.3882 54.0071 32.201L50.3546 25.9684L52.2389 24.8642ZM56.0558 18.4826L61.8952 28.9693L60.3215 29.8915L54.0266 19.6718L56.0558 18.4826ZM63.6545 33.5853C63.2956 33.7956 62.919 33.8494 62.525 33.7465C62.1309 33.6436 61.8287 33.4128 61.6183 33.0538C61.408 32.6949 61.3543 32.3184 61.4571 31.9243C61.56 31.5302 61.7909 31.228 62.1498 31.0177C62.4949 30.8155 62.8576 30.7698 63.2379 30.8808C63.632 30.9836 63.9342 31.2145 64.1445 31.5734C64.3548 31.9324 64.4086 32.3089 64.3057 32.7029C64.2167 33.0889 63.9996 33.3831 63.6545 33.5853Z" fill="#EC17B0"/>
<ellipse cx="128.172" cy="54.4896" rx="48.8276" ry="53.4896" fill="#14A8BC"/>
<path d="M93.6869 51.0927C93.0073 49.9331 92.6474 48.781 92.6071 47.6363C92.5587 46.4777 92.8002 45.4183 93.3315 44.4578C93.8766 43.4893 94.6531 42.7098 95.6608 42.1192C96.6547 41.5368 97.6428 41.2452 98.6253 41.2443C99.6077 41.2435 100.468 41.4623 101.208 41.9008L99.9941 39.8302L101.899 38.7138L108.549 50.0609L106.644 51.1773L105.406 49.0653C105.422 49.9463 105.186 50.8261 104.7 51.7047C104.219 52.5613 103.488 53.2769 102.508 53.8512C101.5 54.4418 100.444 54.7272 99.338 54.7075C98.2324 54.6879 97.1819 54.3669 96.1868 53.7447C95.1916 53.1224 94.3583 52.2384 93.6869 51.0927ZM103.307 45.483C102.805 44.6272 102.196 43.9829 101.479 43.5501C100.761 43.1173 100.009 42.9092 99.2212 42.9258C98.4392 42.9204 97.6961 43.1241 96.9921 43.5366C96.2881 43.9492 95.7433 44.491 95.3576 45.1621C94.972 45.8331 94.7927 46.5873 94.8197 47.4245C94.8467 48.2618 95.111 49.1083 95.6126 49.9642C96.1222 50.8339 96.7397 51.492 97.465 51.9385C98.1822 52.3713 98.9319 52.5903 99.7139 52.5957C100.488 52.5872 101.227 52.3767 101.931 51.9641C102.635 51.5516 103.18 51.0098 103.565 50.3387C103.957 49.6457 104.139 48.8806 104.112 48.0434C104.077 47.1924 103.808 46.3389 103.307 45.483ZM104.638 31.7679L113.617 47.0907L111.733 48.1949L102.754 32.8721L104.638 31.7679ZM109.734 28.7817L118.713 44.1045L116.829 45.2087L107.849 29.8859L109.734 28.7817ZM128.698 30.0469C128.908 30.4058 129.11 30.7976 129.303 31.2222L120.234 36.537C120.958 37.6147 121.851 38.2689 122.914 38.4994C123.982 38.708 125.013 38.5211 126.007 37.9386C126.821 37.4613 127.388 36.8786 127.708 36.1904C128.034 35.4803 128.121 34.743 127.97 33.9786L129.999 32.7894C130.335 34.0579 130.249 35.3042 129.742 36.5284C129.228 37.7387 128.294 38.7402 126.941 39.533C125.864 40.164 124.756 40.4887 123.617 40.5071C122.492 40.5174 121.429 40.2224 120.428 39.6221C119.419 39.0079 118.571 38.1142 117.883 36.9408C117.196 35.7674 116.828 34.6015 116.779 33.443C116.731 32.2845 116.99 31.2238 117.557 30.261C118.13 29.2763 118.969 28.4603 120.073 27.8132C121.15 27.1822 122.24 26.8587 123.343 26.8427C124.446 26.8266 125.462 27.1033 126.389 27.6727C127.322 28.2202 128.091 29.0116 128.698 30.0469ZM126.521 30.7941C126.1 30.0763 125.582 29.555 124.965 29.2304C124.34 28.8918 123.675 28.7532 122.969 28.8146C122.269 28.854 121.587 29.0678 120.925 29.4561C119.972 30.0143 119.336 30.7953 119.015 31.7991C118.708 32.7947 118.822 33.8593 119.357 34.9926L126.521 30.7941ZM138.891 32.5301C138.021 33.0397 137.157 33.3518 136.296 33.4664C135.428 33.5672 134.64 33.4726 133.933 33.1826C133.217 32.8789 132.636 32.394 132.19 31.7281L134.136 30.5874C134.523 31.1211 135.057 31.4298 135.736 31.5137C136.43 31.5894 137.163 31.4008 137.936 30.9478C138.654 30.5271 139.127 30.0367 139.355 29.4765C139.583 28.9164 139.555 28.3947 139.272 27.9115C138.981 27.4146 138.546 27.1782 137.967 27.2024C137.379 27.2128 136.554 27.3716 135.492 27.679C134.52 27.9516 133.701 28.1352 133.033 28.2298C132.371 28.3025 131.717 28.2313 131.072 28.0161C130.432 27.7789 129.898 27.2946 129.469 26.5629C129.129 25.9831 128.991 25.3506 129.052 24.6652C129.114 23.9798 129.382 23.313 129.855 22.6648C130.32 22.0028 130.96 21.4331 131.775 20.9558C133.031 20.2197 134.231 19.9426 135.377 20.1246C136.522 20.3066 137.446 20.9335 138.148 22.0055L136.264 23.1098C135.874 22.5404 135.354 22.2058 134.702 22.1057C134.063 21.9976 133.378 22.1579 132.647 22.5866C131.97 22.983 131.517 23.4435 131.287 23.9679C131.056 24.4924 131.078 24.9894 131.353 25.4587C131.572 25.8314 131.871 26.0733 132.252 26.1842C132.638 26.2733 133.054 26.2886 133.502 26.2301C133.956 26.1497 134.56 26.0091 135.314 25.8084C136.258 25.552 137.05 25.3845 137.69 25.3061C138.322 25.2138 138.943 25.2765 139.553 25.4941C140.176 25.7036 140.697 26.1494 141.115 26.8316C141.479 27.4528 141.634 28.113 141.58 28.8122C141.527 29.5113 141.267 30.192 140.802 30.854C140.343 31.4941 139.706 32.0528 138.891 32.5301ZM139.569 12.4938L145.408 22.9805L143.835 23.9027L137.54 13.683L139.569 12.4938ZM147.168 27.5965C146.809 27.8068 146.432 27.8605 146.038 27.7577C145.644 27.6548 145.342 27.4239 145.131 27.065C144.921 26.7061 144.867 26.3296 144.97 25.9355C145.073 25.5414 145.304 25.2392 145.663 25.0289C146.008 24.8266 146.371 24.781 146.751 24.8919C147.145 24.9948 147.447 25.2257 147.658 25.5846C147.868 25.9435 147.922 26.32 147.819 26.7141C147.73 27.1001 147.513 27.3942 147.168 27.5965Z" fill="#FF0B19"/>
<path d="M121.076 85.682L113.688 83.2799L116.624 88.2909L114.74 89.3951L105.761 74.0723L107.645 72.9681L112.923 81.9754L114.344 74.3834L116.973 72.8423L114.944 81.6258L123.644 84.1773L121.076 85.682ZM118.301 66.7232L127.281 82.0459L125.397 83.1502L116.417 67.8274L118.301 66.7232ZM126.439 74.8615C125.76 73.702 125.4 72.5498 125.359 71.4051C125.311 70.2466 125.552 69.1871 126.084 68.2267C126.629 67.2582 127.405 66.4786 128.413 65.8881C129.407 65.3056 130.395 65.014 131.378 65.0132C132.36 65.0124 133.221 65.2312 133.96 65.6697L132.746 63.599L134.651 62.4827L141.301 73.8298L139.396 74.9462L138.158 72.8341C138.174 73.7151 137.938 74.5949 137.452 75.4735C136.971 76.3302 136.241 77.0457 135.26 77.6201C134.253 78.2106 133.196 78.4961 132.09 78.4764C130.985 78.4567 129.934 78.1358 128.939 77.5135C127.944 76.8913 127.111 76.0073 126.439 74.8615ZM136.059 69.2519C135.558 68.396 134.948 67.7517 134.231 67.319C133.514 66.8862 132.761 66.6781 131.973 66.6947C131.191 66.6893 130.448 66.8929 129.744 67.3055C129.04 67.7181 128.496 68.2599 128.11 68.9309C127.724 69.602 127.545 70.3562 127.572 71.1934C127.599 72.0306 127.863 72.8772 128.365 73.7331C128.874 74.6027 129.492 75.2608 130.217 75.7074C130.935 76.1402 131.684 76.3592 132.466 76.3646C133.24 76.3561 133.979 76.1456 134.683 75.733C135.387 75.3204 135.932 74.7786 136.318 74.1076C136.709 73.4146 136.891 72.6495 136.864 71.8123C136.829 70.9612 136.561 70.1078 136.059 69.2519ZM140.8 61.3553C140.751 60.5123 140.925 59.7334 141.322 59.0186C141.733 58.2956 142.38 57.6753 143.264 57.1576L144.404 59.104L143.907 59.3952C141.795 60.6329 141.411 62.3975 142.754 64.689L146.37 70.8595L144.485 71.9638L137.836 60.6166L139.72 59.5124L140.8 61.3553ZM146.195 51.5728L152.035 62.0595L150.461 62.9817L144.166 52.762L146.195 51.5728ZM153.794 66.6755C153.435 66.8858 153.059 66.9396 152.665 66.8367C152.271 66.7338 151.968 66.503 151.758 66.144C151.548 65.7851 151.494 65.4086 151.597 65.0145C151.7 64.6204 151.931 64.3182 152.289 64.1079C152.635 63.9057 152.997 63.86 153.378 63.971C153.772 64.0738 154.074 64.3047 154.284 64.6636C154.495 65.0226 154.548 65.3991 154.445 65.7931C154.356 66.1791 154.139 66.4733 153.794 66.6755Z" fill="#EC17B0"/>
<path d="M25.376 66.608C26.368 66.608 27.264 66.824 28.064 67.256C28.864 67.672 29.488 68.304 29.936 69.152C30.4 70 30.632 71.032 30.632 72.248V80H28.472V72.56C28.472 71.248 28.144 70.248 27.488 69.56C26.832 68.856 25.936 68.504 24.8 68.504C23.648 68.504 22.728 68.864 22.04 69.584C21.368 70.304 21.032 71.352 21.032 72.728V80H18.848V62.24H21.032V68.72C21.464 68.048 22.056 67.528 22.808 67.16C23.576 66.792 24.432 66.608 25.376 66.608ZM46.1996 72.92C46.1996 73.336 46.1756 73.776 46.1276 74.24H35.6156C35.6956 75.536 36.1356 76.552 36.9356 77.288C37.7516 78.008 38.7356 78.368 39.8876 78.368C40.8316 78.368 41.6156 78.152 42.2396 77.72C42.8796 77.272 43.3276 76.68 43.5836 75.944H45.9356C45.5836 77.208 44.8796 78.24 43.8236 79.04C42.7676 79.824 41.4556 80.216 39.8876 80.216C38.6396 80.216 37.5196 79.936 36.5276 79.376C35.5516 78.816 34.7836 78.024 34.2236 77C33.6636 75.96 33.3836 74.76 33.3836 73.4C33.3836 72.04 33.6556 70.848 34.1996 69.824C34.7436 68.8 35.5036 68.016 36.4796 67.472C37.4716 66.912 38.6076 66.632 39.8876 66.632C41.1356 66.632 42.2396 66.904 43.1996 67.448C44.1596 67.992 44.8956 68.744 45.4076 69.704C45.9356 70.648 46.1996 71.72 46.1996 72.92ZM43.9436 72.464C43.9436 71.632 43.7596 70.92 43.3916 70.328C43.0236 69.72 42.5196 69.264 41.8796 68.96C41.2556 68.64 40.5596 68.48 39.7916 68.48C38.6876 68.48 37.7436 68.832 36.9596 69.536C36.1916 70.24 35.7516 71.216 35.6396 72.464H43.9436ZM51.2664 62.24V80H49.0824V62.24H51.2664ZM57.1726 62.24V80H54.9886V62.24H57.1726ZM66.6309 80.216C65.3989 80.216 64.2789 79.936 63.2709 79.376C62.2789 78.816 61.4949 78.024 60.9189 77C60.3589 75.96 60.0789 74.76 60.0789 73.4C60.0789 72.056 60.3669 70.872 60.9429 69.848C61.5349 68.808 62.3349 68.016 63.3429 67.472C64.3509 66.912 65.4789 66.632 66.7269 66.632C67.9749 66.632 69.1029 66.912 70.1109 67.472C71.1189 68.016 71.9109 68.8 72.4869 69.824C73.0789 70.848 73.3749 72.04 73.3749 73.4C73.3749 74.76 73.0709 75.96 72.4629 77C71.8709 78.024 71.0629 78.816 70.0389 79.376C69.0149 79.936 67.8789 80.216 66.6309 80.216ZM66.6309 78.296C67.4149 78.296 68.1509 78.112 68.8389 77.744C69.5269 77.376 70.0789 76.824 70.4949 76.088C70.9269 75.352 71.1429 74.456 71.1429 73.4C71.1429 72.344 70.9349 71.448 70.5189 70.712C70.1029 69.976 69.5589 69.432 68.8869 69.08C68.2149 68.712 67.4869 68.528 66.7029 68.528C65.9029 68.528 65.1669 68.712 64.4949 69.08C63.8389 69.432 63.3109 69.976 62.9109 70.712C62.5109 71.448 62.3109 72.344 62.3109 73.4C62.3109 74.472 62.5029 75.376 62.8869 76.112C63.2869 76.848 63.8149 77.4 64.4709 77.768C65.1269 78.12 65.8469 78.296 66.6309 78.296Z" fill="#DDBB0B" fill-opacity="0.96"/>
<path d="M80.032 132.24V150H77.848V132.24H80.032ZM89.4903 150.216C88.2583 150.216 87.1383 149.936 86.1303 149.376C85.1383 148.816 84.3543 148.024 83.7783 147C83.2183 145.96 82.9383 144.76 82.9383 143.4C82.9383 142.056 83.2263 140.872 83.8023 139.848C84.3943 138.808 85.1943 138.016 86.2023 137.472C87.2103 136.912 88.3383 136.632 89.5863 136.632C90.8343 136.632 91.9623 136.912 92.9703 137.472C93.9783 138.016 94.7703 138.8 95.3463 139.824C95.9383 140.848 96.2343 142.04 96.2343 143.4C96.2343 144.76 95.9303 145.96 95.3223 147C94.7303 148.024 93.9223 148.816 92.8983 149.376C91.8743 149.936 90.7383 150.216 89.4903 150.216ZM89.4903 148.296C90.2743 148.296 91.0103 148.112 91.6983 147.744C92.3863 147.376 92.9383 146.824 93.3543 146.088C93.7863 145.352 94.0023 144.456 94.0023 143.4C94.0023 142.344 93.7943 141.448 93.3783 140.712C92.9623 139.976 92.4183 139.432 91.7463 139.08C91.0743 138.712 90.3463 138.528 89.5623 138.528C88.7623 138.528 88.0263 138.712 87.3543 139.08C86.6983 139.432 86.1703 139.976 85.7703 140.712C85.3703 141.448 85.1703 142.344 85.1703 143.4C85.1703 144.472 85.3623 145.376 85.7463 146.112C86.1463 146.848 86.6743 147.4 87.3303 147.768C87.9863 148.12 88.7063 148.296 89.4903 148.296ZM101.29 132.24V150H99.1058V132.24H101.29Z" fill="#0DFF6E" fill-opacity="0.96"/>
<path d="M86.376 105.608C87.368 105.608 88.264 105.824 89.064 106.256C89.864 106.672 90.488 107.304 90.936 108.152C91.4 109 91.632 110.032 91.632 111.248V119H89.472V111.56C89.472 110.248 89.144 109.248 88.488 108.56C87.832 107.856 86.936 107.504 85.8 107.504C84.648 107.504 83.728 107.864 83.04 108.584C82.368 109.304 82.032 110.352 82.032 111.728V119H79.848V101.24H82.032V107.72C82.464 107.048 83.056 106.528 83.808 106.16C84.576 105.792 85.432 105.608 86.376 105.608ZM96.3276 103.712C95.9116 103.712 95.5596 103.568 95.2716 103.28C94.9836 102.992 94.8396 102.64 94.8396 102.224C94.8396 101.808 94.9836 101.456 95.2716 101.168C95.5596 100.88 95.9116 100.736 96.3276 100.736C96.7276 100.736 97.0636 100.88 97.3356 101.168C97.6236 101.456 97.7676 101.808 97.7676 102.224C97.7676 102.64 97.6236 102.992 97.3356 103.28C97.0636 103.568 96.7276 103.712 96.3276 103.712ZM97.3836 105.848V119H95.1996V105.848H97.3836Z" fill="#14085F"/>
</svg>
