<svg width="164" height="38" viewBox="0 0 164 38" fill="none" xmlns="http://www.w3.org/2000/svg">
<rect width="164" height="38" fill="#F8D108" fill-opacity="0.96"/>
<rect x="1" y="1" width="162" height="36" stroke="#F8D108" stroke-opacity="0.96" stroke-width="2"/>
<g filter="url(#filter0_d)">
<path d="M20.9186 15.12C20.4546 14.144 19.7826 13.392 18.9026 12.864C18.0226 12.32 16.9986 12.048 15.8306 12.048C14.6626 12.048 13.6066 12.32 12.6626 12.864C11.7346 13.392 10.9986 14.16 10.4546 15.168C9.92656 16.16 9.66256 17.312 9.66256 18.624C9.66256 19.936 9.92656 21.088 10.4546 22.08C10.9986 23.072 11.7346 23.84 12.6626 24.384C13.6066 24.912 14.6626 25.176 15.8306 25.176C17.4626 25.176 18.8066 24.688 19.8626 23.712C20.9186 22.736 21.5346 21.416 21.7106 19.752H15.0386V17.976H24.0386V19.656C23.9106 21.032 23.4786 22.296 22.7426 23.448C22.0066 24.584 21.0386 25.488 19.8386 26.16C18.6386 26.816 17.3026 27.144 15.8306 27.144C14.2786 27.144 12.8626 26.784 11.5826 26.064C10.3026 25.328 9.28656 24.312 8.53456 23.016C7.79856 21.72 7.43056 20.256 7.43056 18.624C7.43056 16.992 7.79856 15.528 8.53456 14.232C9.28656 12.92 10.3026 11.904 11.5826 11.184C12.8626 10.448 14.2786 10.08 15.8306 10.08C17.6066 10.08 19.1746 10.52 20.5346 11.4C21.9106 12.28 22.9106 13.52 23.5346 15.12H20.9186ZM38.9262 19.92C38.9262 20.336 38.9022 20.776 38.8542 21.24H28.3422C28.4222 22.536 28.8622 23.552 29.6622 24.288C30.4782 25.008 31.4622 25.368 32.6142 25.368C33.5582 25.368 34.3422 25.152 34.9662 24.72C35.6062 24.272 36.0542 23.68 36.3102 22.944H38.6622C38.3102 24.208 37.6062 25.24 36.5502 26.04C35.4942 26.824 34.1822 27.216 32.6142 27.216C31.3662 27.216 30.2462 26.936 29.2542 26.376C28.2782 25.816 27.5102 25.024 26.9502 24C26.3902 22.96 26.1102 21.76 26.1102 20.4C26.1102 19.04 26.3822 17.848 26.9262 16.824C27.4702 15.8 28.2302 15.016 29.2062 14.472C30.1982 13.912 31.3342 13.632 32.6142 13.632C33.8622 13.632 34.9662 13.904 35.9262 14.448C36.8862 14.992 37.6222 15.744 38.1342 16.704C38.6622 17.648 38.9262 18.72 38.9262 19.92ZM36.6702 19.464C36.6702 18.632 36.4862 17.92 36.1182 17.328C35.7502 16.72 35.2462 16.264 34.6062 15.96C33.9822 15.64 33.2862 15.48 32.5182 15.48C31.4142 15.48 30.4702 15.832 29.6862 16.536C28.9182 17.24 28.4782 18.216 28.3662 19.464H36.6702ZM46.4651 27.216C45.4571 27.216 44.5531 27.048 43.7531 26.712C42.9531 26.36 42.3211 25.88 41.8571 25.272C41.3931 24.648 41.1371 23.936 41.0891 23.136H43.3451C43.4091 23.792 43.7131 24.328 44.2571 24.744C44.8171 25.16 45.5451 25.368 46.4411 25.368C47.2731 25.368 47.9291 25.184 48.4091 24.816C48.8891 24.448 49.1291 23.984 49.1291 23.424C49.1291 22.848 48.8731 22.424 48.3611 22.152C47.8491 21.864 47.0571 21.584 45.9851 21.312C45.0091 21.056 44.2091 20.8 43.5851 20.544C42.9771 20.272 42.4491 19.88 42.0011 19.368C41.5691 18.84 41.3531 18.152 41.3531 17.304C41.3531 16.632 41.5531 16.016 41.9531 15.456C42.3531 14.896 42.9211 14.456 43.6571 14.136C44.3931 13.8 45.2331 13.632 46.1771 13.632C47.6331 13.632 48.8091 14 49.7051 14.736C50.6011 15.472 51.0811 16.48 51.1451 17.76H48.9611C48.9131 17.072 48.6331 16.52 48.1211 16.104C47.6251 15.688 46.9531 15.48 46.1051 15.48C45.3211 15.48 44.6971 15.648 44.2331 15.984C43.7691 16.32 43.5371 16.76 43.5371 17.304C43.5371 17.736 43.6731 18.096 43.9451 18.384C44.2331 18.656 44.5851 18.88 45.0011 19.056C45.4331 19.216 46.0251 19.4 46.7771 19.608C47.7211 19.864 48.4891 20.12 49.0811 20.376C49.6731 20.616 50.1771 20.984 50.5931 21.48C51.0251 21.976 51.2491 22.624 51.2651 23.424C51.2651 24.144 51.0651 24.792 50.6651 25.368C50.2651 25.944 49.6971 26.4 48.9611 26.736C48.2411 27.056 47.4091 27.216 46.4651 27.216ZM53.5321 20.4C53.5321 19.04 53.8041 17.856 54.3481 16.848C54.8921 15.824 55.6441 15.032 56.6041 14.472C57.5801 13.912 58.6921 13.632 59.9401 13.632C61.5561 13.632 62.8841 14.024 63.9241 14.808C64.9801 15.592 65.6761 16.68 66.0121 18.072H63.6601C63.4361 17.272 62.9961 16.64 62.3401 16.176C61.7001 15.712 60.9001 15.48 59.9401 15.48C58.6921 15.48 57.6841 15.912 56.9161 16.776C56.1481 17.624 55.7641 18.832 55.7641 20.4C55.7641 21.984 56.1481 23.208 56.9161 24.072C57.6841 24.936 58.6921 25.368 59.9401 25.368C60.9001 25.368 61.7001 25.144 62.3401 24.696C62.9801 24.248 63.4201 23.608 63.6601 22.776H66.0121C65.6601 24.12 64.9561 25.2 63.9001 26.016C62.8441 26.816 61.5241 27.216 59.9401 27.216C58.6921 27.216 57.5801 26.936 56.6041 26.376C55.6441 25.816 54.8921 25.024 54.3481 24C53.8041 22.976 53.5321 21.776 53.5321 20.4ZM75.4542 13.608C76.4462 13.608 77.3422 13.824 78.1422 14.256C78.9422 14.672 79.5662 15.304 80.0142 16.152C80.4782 17 80.7102 18.032 80.7102 19.248V27H78.5502V19.56C78.5502 18.248 78.2222 17.248 77.5662 16.56C76.9102 15.856 76.0142 15.504 74.8782 15.504C73.7262 15.504 72.8062 15.864 72.1182 16.584C71.4462 17.304 71.1102 18.352 71.1102 19.728V27H68.9262V9.24H71.1102V15.72C71.5422 15.048 72.1342 14.528 72.8862 14.16C73.6542 13.792 74.5102 13.608 75.4542 13.608ZM85.4058 11.712C84.9898 11.712 84.6378 11.568 84.3498 11.28C84.0618 10.992 83.9178 10.64 83.9178 10.224C83.9178 9.808 84.0618 9.456 84.3498 9.168C84.6378 8.88 84.9898 8.736 85.4058 8.736C85.8058 8.736 86.1418 8.88 86.4138 9.168C86.7018 9.456 86.8458 9.808 86.8458 10.224C86.8458 10.64 86.7018 10.992 86.4138 11.28C86.1418 11.568 85.8058 11.712 85.4058 11.712ZM86.4618 13.848V27H84.2778V13.848H86.4618ZM89.3681 20.4C89.3681 19.04 89.6401 17.856 90.1841 16.848C90.7281 15.824 91.4801 15.032 92.4401 14.472C93.4161 13.912 94.5281 13.632 95.7761 13.632C97.3921 13.632 98.7201 14.024 99.7601 14.808C100.816 15.592 101.512 16.68 101.848 18.072H99.4961C99.2721 17.272 98.8321 16.64 98.1761 16.176C97.5361 15.712 96.7361 15.48 95.7761 15.48C94.5281 15.48 93.5201 15.912 92.7521 16.776C91.9841 17.624 91.6001 18.832 91.6001 20.4C91.6001 21.984 91.9841 23.208 92.7521 24.072C93.5201 24.936 94.5281 25.368 95.7761 25.368C96.7361 25.368 97.5361 25.144 98.1761 24.696C98.8161 24.248 99.2561 23.608 99.4961 22.776H101.848C101.496 24.12 100.792 25.2 99.7361 26.016C98.6801 26.816 97.3601 27.216 95.7761 27.216C94.5281 27.216 93.4161 26.936 92.4401 26.376C91.4801 25.816 90.7281 25.024 90.1841 24C89.6401 22.976 89.3681 21.776 89.3681 20.4ZM111.29 13.608C112.282 13.608 113.178 13.824 113.978 14.256C114.778 14.672 115.402 15.304 115.85 16.152C116.314 17 116.546 18.032 116.546 19.248V27H114.386V19.56C114.386 18.248 114.058 17.248 113.402 16.56C112.746 15.856 111.85 15.504 110.714 15.504C109.562 15.504 108.642 15.864 107.954 16.584C107.282 17.304 106.946 18.352 106.946 19.728V27H104.762V9.24H106.946V15.72C107.378 15.048 107.97 14.528 108.722 14.16C109.49 13.792 110.346 13.608 111.29 13.608ZM122.778 15.648V23.4C122.778 24.04 122.914 24.496 123.186 24.768C123.458 25.024 123.93 25.152 124.602 25.152H126.21V27H124.242C123.026 27 122.114 26.72 121.506 26.16C120.898 25.6 120.594 24.68 120.594 23.4V15.648H118.89V13.848H120.594V10.536H122.778V13.848H126.21V15.648H122.778ZM140.856 19.92C140.856 20.336 140.832 20.776 140.784 21.24H130.272C130.352 22.536 130.792 23.552 131.592 24.288C132.408 25.008 133.392 25.368 134.544 25.368C135.488 25.368 136.272 25.152 136.896 24.72C137.536 24.272 137.984 23.68 138.24 22.944H140.592C140.24 24.208 139.536 25.24 138.48 26.04C137.424 26.824 136.112 27.216 134.544 27.216C133.296 27.216 132.176 26.936 131.184 26.376C130.208 25.816 129.44 25.024 128.88 24C128.32 22.96 128.04 21.76 128.04 20.4C128.04 19.04 128.312 17.848 128.856 16.824C129.4 15.8 130.16 15.016 131.136 14.472C132.128 13.912 133.264 13.632 134.544 13.632C135.792 13.632 136.896 13.904 137.856 14.448C138.816 14.992 139.552 15.744 140.064 16.704C140.592 17.648 140.856 18.72 140.856 19.92ZM138.6 19.464C138.6 18.632 138.416 17.92 138.048 17.328C137.68 16.72 137.176 16.264 136.536 15.96C135.912 15.64 135.216 15.48 134.448 15.48C133.344 15.48 132.4 15.832 131.616 16.536C130.848 17.24 130.408 18.216 130.296 19.464H138.6ZM150.147 13.608C151.747 13.608 153.043 14.096 154.035 15.072C155.027 16.032 155.523 17.424 155.523 19.248V27H153.363V19.56C153.363 18.248 153.035 17.248 152.379 16.56C151.723 15.856 150.827 15.504 149.691 15.504C148.539 15.504 147.619 15.864 146.931 16.584C146.259 17.304 145.923 18.352 145.923 19.728V27H143.739V13.848H145.923V15.72C146.355 15.048 146.939 14.528 147.675 14.16C148.427 13.792 149.251 13.608 150.147 13.608Z" fill="#0B0338"/>
</g>
<defs>
<filter id="filter0_d" x="3.43054" y="8.73584" width="156.092" height="26.48" filterUnits="userSpaceOnUse" color-interpolation-filters="sRGB">
<feFlood flood-opacity="0" result="BackgroundImageFix"/>
<feColorMatrix in="SourceAlpha" type="matrix" values="0 0 0 0 0 0 0 0 0 0 0 0 0 0 0 0 0 0 127 0"/>
<feOffset dy="4"/>
<feGaussianBlur stdDeviation="2"/>
<feColorMatrix type="matrix" values="0 0 0 0 0 0 0 0 0 0 0 0 0 0 0 0 0 0 0.25 0"/>
<feBlend mode="normal" in2="BackgroundImageFix" result="effect1_dropShadow"/>
<feBlend mode="normal" in="SourceGraphic" in2="effect1_dropShadow" result="shape"/>
</filter>
</defs>
</svg>


